<svg width="30" height="27" viewBox="0 0 30 27" fill="none" xmlns="http://www.w3.org/2000/svg">
<path d="M15.1848 0.695599L15.614 1.3986H14.726H13.838L14.2672 0.695599C14.4966 0.310799 14.7038 0 14.726 0C14.7482 0 14.9554 0.310799 15.1848 0.695599ZM16.9978 3.4336C17.168 3.6778 17.3086 3.8998 17.316 3.9294C17.316 3.9664 16.1468 3.9886 14.7186 3.9886C13.2904 3.9886 12.136 3.959 12.1508 3.9294C12.1656 3.8924 12.3062 3.6556 12.469 3.4114L12.765 2.9526L14.726 2.9674L16.6796 2.9896L16.9978 3.4336ZM18.6998 5.9496C18.87 6.1938 19.0106 6.4158 19.018 6.4454C19.018 6.4824 17.0718 6.5046 14.6816 6.5046H10.3526L10.5302 6.2604C10.6264 6.1346 10.7966 5.8978 10.9076 5.7424L11.1074 5.4686L14.7482 5.4834L18.3816 5.5056L18.6998 5.9496ZM20.4536 8.5322C20.646 8.7912 20.794 9.0206 20.794 9.0502C20.794 9.0724 18.0634 9.0946 14.726 9.0946C11.3886 9.0946 8.658 9.0724 8.658 9.0502C8.658 9.0206 8.806 8.7912 8.9984 8.5322L9.3314 8.0586H14.726H20.1206L20.4536 8.5322ZM18.426 10.5894L21.8596 10.6116L22.1778 11.0556C22.348 11.2998 22.4886 11.544 22.496 11.5884C22.496 11.6624 21.7634 11.6846 19.0846 11.6846H15.6806L16.1838 12.4246L16.687 13.1646H20.1428H23.606L23.939 13.6604L24.272 14.1636L20.8384 14.1858L17.4048 14.2006L17.9302 14.9776L18.4556 15.7546H21.9114H25.3672L25.6706 16.2208C25.8334 16.4798 25.974 16.7092 25.974 16.7388C25.974 16.7684 24.4422 16.7906 22.57 16.7906H19.166L19.6544 17.5306L20.1502 18.2706H23.606H27.0692L27.4096 18.7664L27.7574 19.2696L24.309 19.2918L20.868 19.3066L21.4008 20.0836L21.9336 20.8606H25.3894H28.8452L29.1486 21.3268C29.3114 21.5858 29.452 21.8152 29.452 21.8448C29.452 21.8744 27.9202 21.904 26.0406 21.9114L22.6366 21.9336L22.9178 22.3406C23.0806 22.5626 23.7318 23.5246 24.3756 24.4644L25.5374 26.1886H14.5484H3.5594L5.0024 24.0722C5.7942 22.9104 6.438 21.9484 6.438 21.9262C6.438 21.9114 4.9876 21.8966 3.219 21.8966C1.4504 21.8966 0 21.8744 0 21.8448C0 21.8152 0.1406 21.5858 0.3034 21.3268L0.6068 20.8606H3.8924H7.1706L7.6886 20.0984L8.2066 19.3436L4.9506 19.3066L1.6946 19.2696L2.0424 18.7664L2.3828 18.2706H5.661H8.9392L9.4276 17.5454L9.9234 16.8276L6.697 16.8054C4.81 16.798 3.478 16.761 3.478 16.724C3.478 16.687 3.6186 16.4502 3.7888 16.206L4.0996 15.7546H7.3778H10.656L11.174 14.9776L11.692 14.2006L8.436 14.1858L5.18 14.1636L5.513 13.6604L5.846 13.1646H9.1242H12.4024L12.8982 12.4394L13.4014 11.7216L10.175 11.6994C7.6738 11.6846 6.956 11.6624 6.956 11.5884C6.9634 11.544 7.104 11.2998 7.2742 11.0556L7.5924 10.6116L10.878 10.5894L14.171 10.5746L14.3486 10.3008L14.5262 10.027L14.7556 10.3008L14.985 10.5746L18.426 10.5894Z" fill="#03989E"/>
</svg>
